<svg role="img" viewBox="0 0 295 45" xmlns="http://www.w3.org/2000/svg"><title>Ryoga.exe icon</title><path d="M0 0v40h10V25h10v15h10V25h-5v-5h5V5h-5V0zm10 5h10v15H10zm25 10v15h5v5h15v5H40v5h20v-5h5V15H55v15H45V15zm40 0v5h-5v15h5v5h20v-5h5V20h-5v-5zm35 0v5h-5v10h5v5h15v5h-15v5h20v-5h5V15zm35 0v5h-5v15h5v5h15v-5h-10V20h10v15h5v5h10v-5h-5V15zm55 0v5h-5v15h5v5h25v-5h-20v-5h20V20h-5v-5zm30 0v5h5v5h5v5h-5v5h-5v5h15v-5h5v5h10v-5h-5v-5h-5v-5h5v-5h5v-5h-10v5h-10v-5zm40 0v5h-5v15h5v5h25v-5h-20v-5h20V20h-5v-5zM80 20h10v15H80zm35 0h10v10h-10zm90 0h10v5h-10zm70 0h10v5h-10zm-95 10v10h10V30z"/></svg>