<svg role="img" viewBox="0 0 24 24" xmlns="http://www.w3.org/2000/svg"><title>Ryoga.exe icon</title><path d="M0 10.17v3.254h.814v-1.22h.813v1.22h.814v-1.22h-.407v-.407h.407v-1.22h-.407v-.408zm.814.406h.813v1.22H.814zm2.033.814v1.22h.407v.407h1.22v.407h-1.22v.407h1.627v-.407h.407V11.39h-.813v1.22H3.66v-1.22zm3.255 0v.407h-.407v1.22h.407v.407h1.627v-.407h.407v-1.22h-.407v-.407zm2.847 0v.407h-.407v.813h.407v.407h1.22v.407H8.95v.407h1.627v-.407h.407V11.39zm2.848 0v.407h-.407v1.22h.407v.407h1.22v-.407h-.814v-1.22h.814v1.22h.407v.407h.813v-.407h-.406V11.39zm4.474 0v.407h-.407v1.22h.407v.407h2.034v-.407h-1.627v-.407h1.627v-.813h-.407v-.407zm2.44 0v.407h.408v.406h.406v.407h-.406v.407h-.407v.407h1.22v-.407h.407v.407h.814v-.407h-.407v-.407h-.407v-.407h.407v-.406h.407v-.407h-.814v.407h-.814v-.407zm3.255 0v.407h-.407v1.22h.407v.407H24v-.407h-1.627v-.407H24v-.813h-.407v-.407zm-15.458.407h.814v1.22h-.814zm2.848 0h.813v.813h-.813zm7.322 0h.814v.406h-.814zm5.695 0h.813v.406h-.813zm-7.729.813v.814h.814v-.814z"/></svg>